<?xml version="1.0" encoding="UTF-8"?>
<svg version="1.1" xmlns="http://www.w3.org/2000/svg" width="500" height="500">
<path d="M0 0 C2.9410655 1.35412027 5.88661721 2.69833978 8.83203125 4.04296875 C9.90172401 4.53516655 9.90172401 4.53516655 10.99302673 5.03730774 C16.41074428 7.51329407 21.89320548 9.6720755 27.47290039 11.75952148 C30.79935519 13.04983532 33.85526611 14.5666187 37 16.25 C43.10150019 19.38192305 49.24152446 21.80846064 55.71484375 24.0625 C60.29678077 25.76063865 64.67779161 27.88163285 69.09051514 29.96980286 C73.85806859 32.21661156 78.66525645 34.34730812 83.51171875 36.41796875 C84.20025436 36.7134964 84.88878998 37.00902405 85.59819031 37.31350708 C88.40900824 38.51934976 91.22043361 39.72344034 94.0378418 40.91381836 C96.13712658 41.80237055 98.23094319 42.70286803 100.32421875 43.60546875 C100.95647873 43.86909714 101.58873871 44.13272552 102.24015808 44.40434265 C105.92940575 46.00852848 108.72128862 47.59511934 111.1875 50.8125 C111.1875 52.1325 111.1875 53.4525 111.1875 54.8125 C110.5275 54.8125 109.8675 54.8125 109.1875 54.8125 C109.1875 55.4725 109.1875 56.1325 109.1875 56.8125 C107.92058493 57.48658308 106.64879251 58.15150497 105.375 58.8125 C104.66730469 59.18375 103.95960938 59.555 103.23046875 59.9375 C101.1875 60.8125 101.1875 60.8125 98.1875 60.8125 C98.18214261 65.24267577 98.21607283 69.67035904 98.28515625 74.09985352 C98.30323371 75.60399529 98.31089978 77.10830201 98.30761719 78.61254883 C97.92957777 88.51809753 97.92957777 88.51809753 102.1796875 97.02734375 C102.71706543 97.47070068 103.25444336 97.91405762 103.80810547 98.37084961 C107.64481884 102.38072438 106.40924158 110.25207984 106.4375 115.4375 C106.4684375 116.86835938 106.4684375 116.86835938 106.5 118.328125 C106.50515625 119.24335938 106.5103125 120.15859375 106.515625 121.1015625 C106.5249707 121.93381348 106.53431641 122.76606445 106.54394531 123.62353516 C106.1875 125.8125 106.1875 125.8125 104.95214844 127.58642578 C102.69512066 129.15460418 101.35902692 129.17244153 98.625 129.140625 C97.30628906 129.13289063 97.30628906 129.13289063 95.9609375 129.125 C95.04570312 129.104375 94.13046875 129.08375 93.1875 129.0625 C92.27226562 129.05734375 91.35703125 129.0521875 90.4140625 129.046875 C83.65268807 128.96756269 83.65268807 128.96756269 80.1875 127.8125 C80.12945719 123.39588849 80.09388896 118.97937504 80.0625 114.5625 C80.04574219 113.30824219 80.02898437 112.05398437 80.01171875 110.76171875 C80.00527344 109.55644531 79.99882812 108.35117188 79.9921875 107.109375 C79.98171387 105.99916992 79.97124023 104.88896484 79.96044922 103.74511719 C80.18281666 100.87299058 80.69468425 99.24026265 82.1875 96.8125 C82.8475 96.8125 83.5075 96.8125 84.1875 96.8125 C84.1875 96.1525 84.1875 95.4925 84.1875 94.8125 C84.8475 94.8125 85.5075 94.8125 86.1875 94.8125 C86.5175 85.5725 86.8475 76.3325 87.1875 66.8125 C78.71926836 70.42869457 78.71926836 70.42869457 70.25439453 74.05273438 C69.20364746 74.49939453 68.15290039 74.94605469 67.0703125 75.40625 C65.99152832 75.86708984 64.91274414 76.32792969 63.80126953 76.80273438 C61.1875 77.8125 61.1875 77.8125 59.1875 77.8125 C59.2318622 81.83339762 59.30190898 85.85297503 59.39501953 89.87304688 C59.42311623 91.23848164 59.44438677 92.60407564 59.45849609 93.96972656 C59.48007982 95.94104038 59.5288546 97.91199631 59.578125 99.8828125 C59.59907227 101.06633301 59.62001953 102.24985352 59.64160156 103.46923828 C60.28742434 107.42446955 61.88636276 109.58185908 64.1875 112.8125 C64.1875 113.8025 64.1875 114.7925 64.1875 115.8125 C64.8475 115.8125 65.5075 115.8125 66.1875 115.8125 C67.15027259 118.16493492 68.10778498 120.51929619 69.0625 122.875 C69.46662109 123.86016602 69.46662109 123.86016602 69.87890625 124.86523438 C76.49434792 141.24248632 77.00555781 159.63123988 73.1875 176.8125 C73.00445312 177.75996094 72.82140625 178.70742188 72.6328125 179.68359375 C69.3077232 195.13910141 60.54086054 210.51224647 52.0625 223.75 C45.54700154 234.48455075 42.18179048 246.34441302 41.1875 258.8125 C41.08115234 259.93785156 41.08115234 259.93785156 40.97265625 261.0859375 C40.51826507 270.57362536 43.13151661 280.64488443 45.375 289.8125 C46.41038224 294.18506465 46.32973596 298.33206734 46.1875 302.8125 C45.5275 302.8125 44.8675 302.8125 44.1875 302.8125 C43.86761108 303.77663818 43.86761108 303.77663818 43.54125977 304.76025391 C42.1875 306.8125 42.1875 306.8125 39.69506836 307.44677734 C38.64971924 307.5133252 37.60437012 307.57987305 36.52734375 307.6484375 C35.35486084 307.73915527 34.18237793 307.82987305 32.97436523 307.92333984 C31.70407471 308.0105127 30.43378418 308.09768555 29.125 308.1875 C6.26899484 310.21833568 -14.31770707 316.31880746 -35.66821289 324.49365234 C-36.42041611 324.77744751 -37.17261932 325.06124268 -37.94761658 325.3536377 C-39.35855627 325.88700244 -40.76600604 326.42973634 -42.16896057 326.98376465 C-46.52199433 328.62232514 -50.17276318 329.22762299 -54.8125 328.8125 C-56.875 326.9375 -56.875 326.9375 -57.8125 323.8125 C-57.48955291 321.45498626 -56.92756772 319.19432667 -56.37890625 316.87890625 C-54.44168176 306.39117365 -55.02598727 295.46556748 -59.8125 285.8125 C-60.79359246 284.79394339 -61.78932112 283.78877096 -62.8125 282.8125 C-62.8125 282.1525 -62.8125 281.4925 -62.8125 280.8125 C-72.49957328 276.88530813 -81.53569128 277.31769146 -91.8125 278.8125 C-101.86798439 279.50105384 -108.11685956 278.82335954 -115.8125 272.25 C-119.16771862 266.48321799 -118.42665564 260.55257903 -117 254.1875 C-116.75410346 249.76136229 -118.44197545 247.77071704 -120.73046875 244.1015625 C-122.49143553 240.37619596 -121.7410611 237.74102774 -120.8125 233.8125 C-121.4725 233.4825 -122.1325 233.1525 -122.8125 232.8125 C-122.8125 232.1525 -122.8125 231.4925 -122.8125 230.8125 C-123.4725 230.8125 -124.1325 230.8125 -124.8125 230.8125 C-127.48199687 225.47350627 -125.45821613 217.54323065 -124.8125 211.8125 C-125.66521484 211.70035156 -125.66521484 211.70035156 -126.53515625 211.5859375 C-131.74677653 210.69848296 -135.70015608 209.37367112 -139.53515625 205.62890625 C-141.50864273 202.82257226 -141.90072725 200.74622697 -141.6171875 197.34375 C-140.02153241 192.32440776 -136.43745276 188.5512115 -133.15625 184.52050781 C-130.76026516 181.47502998 -128.59845814 178.27699561 -126.4375 175.0625 C-126.02129395 174.46099121 -125.60508789 173.85948242 -125.17626953 173.23974609 C-118.59580672 163.44002553 -118.52178953 155.35743872 -118.9296875 143.71875 C-119.15283895 133.156248 -116.92530534 123.94128904 -113 114.1875 C-112.74645752 113.5490918 -112.49291504 112.91068359 -112.23168945 112.25292969 C-110.68760525 108.49548408 -108.8756635 105.34045878 -106.5 102.0625 C-101.91046972 95.04039884 -102.82912536 85.90905237 -102.8125 77.8125 C-104.66681641 77.23242188 -104.66681641 77.23242188 -106.55859375 76.640625 C-113.64215207 74.2771326 -120.38068128 71.12938054 -127.1875 68.07714844 C-132.08238517 65.8877107 -136.9629922 63.71629466 -141.96484375 61.78125 C-142.71048584 61.48508789 -143.45612793 61.18892578 -144.22436523 60.88378906 C-145.57571746 60.35228563 -146.93578987 59.8422368 -148.30493164 59.35839844 C-150.09375 58.640625 -150.09375 58.640625 -152.8125 56.8125 C-153.90625 53.296875 -153.90625 53.296875 -153.8125 49.8125 C-151.62351901 46.91256405 -148.89821545 45.7745637 -145.61328125 44.359375 C-144.57703613 43.90860596 -143.54079102 43.45783691 -142.47314453 42.9934082 C-141.36825684 42.5212085 -140.26336914 42.04900879 -139.125 41.5625 C-137.99175293 41.07160889 -136.85850586 40.58071777 -135.69091797 40.07495117 C-133.42580752 39.09398386 -131.15955002 38.11566045 -128.89208984 37.14013672 C-125.68894219 35.7592332 -122.49550688 34.35779758 -119.3046875 32.94873047 C-112.31683458 29.86596167 -105.28437079 26.89338546 -98.2421875 23.93725586 C-92.13298284 21.37180936 -86.03137686 18.78915696 -79.9375 16.1875 C-79.11870361 15.83961426 -78.29990723 15.49172852 -77.45629883 15.13330078 C-71.68945503 12.66647858 -65.99271726 10.06392924 -60.30175781 7.42724609 C-54.73746167 4.85222128 -49.16610908 2.29687407 -43.5637207 -0.19433594 C-42.26274086 -0.77691802 -40.96489374 -1.36654295 -39.67016602 -1.96289062 C-23.92990674 -9.20124154 -15.37906696 -7.21390085 0 0 Z M-37.8125 109.8125 C-37.8125 110.4725 -37.8125 111.1325 -37.8125 111.8125 C-38.4725 111.8125 -39.1325 111.8125 -39.8125 111.8125 C-44.61697895 118.26851859 -44.18096992 123.9825143 -43.8125 131.8125 C-43.8125 135.8125 -43.8125 135.8125 -45.34375 137.6640625 C-46.31828125 138.54191406 -46.31828125 138.54191406 -47.3125 139.4375 C-48.51195166 140.5274779 -49.68675618 141.64655104 -50.8125 142.8125 C-50.8125 143.4725 -50.8125 144.1325 -50.8125 144.8125 C-51.4725 144.8125 -52.1325 144.8125 -52.8125 144.8125 C-52.8125 145.4725 -52.8125 146.1325 -52.8125 146.8125 C-53.4725 146.8125 -54.1325 146.8125 -54.8125 146.8125 C-55.8025 149.2875 -55.8025 149.2875 -56.8125 151.8125 C-57.4725 151.8125 -58.1325 151.8125 -58.8125 151.8125 C-63.85902282 162.04072037 -64.82635264 174.74200859 -61.8125 185.8125 C-57.98751656 194.86613054 -50.03663064 201.78998528 -43.11767578 208.52246094 C-38.90612115 212.6252577 -38.90612115 212.6252577 -37.8125 214.8125 C-37.1525 214.8125 -36.4925 214.8125 -35.8125 214.8125 C-35.4825 215.8025 -35.1525 216.7925 -34.8125 217.8125 C-34.1525 217.8125 -33.4925 217.8125 -32.8125 217.8125 C-31.02093226 222.43398003 -30.55761689 226.29471298 -30.54125977 231.23901367 C-30.53603302 231.95683517 -30.53080627 232.67465668 -30.52542114 233.41423035 C-30.51522954 234.96269245 -30.50940924 236.51118834 -30.50753975 238.05968285 C-30.50386176 240.5101089 -30.48709948 242.96013546 -30.46678162 245.41047668 C-30.41148434 252.37342929 -30.3806067 259.33643822 -30.35620117 266.29956055 C-30.34034734 270.56653021 -30.31016175 274.83321078 -30.27143669 279.1000309 C-30.25977795 280.72472383 -30.25385627 282.34946835 -30.25375557 283.97420311 C-30.25356399 286.2411675 -30.23533686 288.50732984 -30.21313477 290.77416992 C-30.20806412 292.06401291 -30.20299347 293.3538559 -30.19776917 294.68278503 C-30.06420312 297.77524044 -30.06420312 297.77524044 -28.45152283 299.76802063 C-26.76434163 301.07939238 -26.76434163 301.07939238 -24.1875 300.5625 C-21.8812593 300.03504355 -21.8812593 300.03504355 -20.8125 298.8125 C-20.69250426 295.95982135 -20.63701492 293.13028596 -20.62304688 290.27636719 C-20.61475357 289.38026733 -20.60646027 288.48416748 -20.59791565 287.56091309 C-20.58046541 285.60586092 -20.5653124 283.65078726 -20.55213928 281.6957016 C-20.53113199 278.59193975 -20.50409851 275.48828275 -20.47546387 272.38458252 C-20.41563954 265.77726241 -20.36368571 259.16989186 -20.3125 252.5625 C-20.2530803 244.94564592 -20.19038634 237.32884109 -20.12062073 229.71207428 C-20.09429146 226.67189613 -20.0733161 223.63171259 -20.0526123 220.5914917 C-19.84468086 194.90904257 -19.84468086 194.90904257 -17.8125 188.8125 C-17.1525 188.8125 -16.4925 188.8125 -15.8125 188.8125 C-15.8125 188.1525 -15.8125 187.4925 -15.8125 186.8125 C-12.10966601 185.90136959 -8.586737 185.73268544 -4.78295898 185.67407227 C2.5745775 185.5114703 7.79268702 184.91966235 13.81640625 180.28515625 C15.41463951 178.90388816 15.41463951 178.90388816 15.1875 176.8125 C15.8475 176.8125 16.5075 176.8125 17.1875 176.8125 C17.1875 176.1525 17.1875 175.4925 17.1875 174.8125 C17.8475 174.8125 18.5075 174.8125 19.1875 174.8125 C20.99443756 173.02637689 20.99443756 173.02637689 22.8125 170.8125 C23.44414062 170.07 24.07578125 169.3275 24.7265625 168.5625 C25.20867187 167.985 25.69078125 167.4075 26.1875 166.8125 C28.92567166 167.42904196 31.31978032 168.2911331 33.875 169.4375 C38.51011362 171.18643692 42.42543065 171.10506168 47.1875 169.8125 C49.71897175 168.6584467 51.85311821 167.35219863 54.1875 165.8125 C54.1875 165.1525 54.1875 164.4925 54.1875 163.8125 C54.8475 163.8125 55.5075 163.8125 56.1875 163.8125 C60.36945551 157.93162507 61.09547761 152.97074209 60.1875 145.8125 C59.23642706 143.06237473 59.23642706 143.06237473 58.1875 140.8125 C57.5275 140.8125 56.8675 140.8125 56.1875 140.8125 C55.960625 140.235 55.73375 139.6575 55.5 139.0625 C53.5789931 135.76934531 51.00426913 133.39142853 47.32421875 132.21875 C41.94148591 131.19534193 36.33010828 130.81868181 31.375 133.4375 C26.45802877 137.10112562 23.11123898 140.87284509 21.1875 146.8125 C21.24106328 148.45957097 21.32603102 150.10583259 21.4375 151.75 C20.90289156 160.09899138 13.73755311 165.20223007 7.91088867 170.47485352 C3.51275964 173.88855927 -0.82806439 174.31244104 -6.25 174.8125 C-11.10296654 175.26238874 -15.34849169 175.68255568 -19.8125 177.8125 C-19.8125 178.4725 -19.8125 179.1325 -19.8125 179.8125 C-20.41707031 180.06257813 -21.02164063 180.31265625 -21.64453125 180.5703125 C-24.14036487 182.00035771 -25.03474043 183.23769693 -26.5 185.6875 C-26.91636719 186.36554688 -27.33273438 187.04359375 -27.76171875 187.7421875 C-29.93371165 192.02157871 -29.92271122 195.79137783 -29.875 200.5625 C-29.86597656 201.73296875 -29.85695312 202.9034375 -29.84765625 204.109375 C-29.83605469 205.00140625 -29.82445312 205.8934375 -29.8125 206.8125 C-31.6875 206.5625 -31.6875 206.5625 -33.8125 205.8125 C-34.51660962 204.49855485 -35.17585065 203.16042427 -35.8125 201.8125 C-37.45354979 200.0594984 -39.14624334 198.35407117 -40.875 196.6875 C-45.71527778 192.00694444 -45.71527778 192.00694444 -46.8125 189.8125 C-47.4725 189.8125 -48.1325 189.8125 -48.8125 189.8125 C-52.71614952 180.18349784 -53.72764643 168.23962912 -50.3125 158.1875 C-49.8175 157.07375 -49.3225 155.96 -48.8125 154.8125 C-48.1525 154.8125 -47.4925 154.8125 -46.8125 154.8125 C-46.8125 154.1525 -46.8125 153.4925 -46.8125 152.8125 C-46.1525 152.8125 -45.4925 152.8125 -44.8125 152.8125 C-44.8125 152.1525 -44.8125 151.4925 -44.8125 150.8125 C-44.1525 150.8125 -43.4925 150.8125 -42.8125 150.8125 C-42.8125 150.1525 -42.8125 149.4925 -42.8125 148.8125 C-42.1525 148.8125 -41.4925 148.8125 -40.8125 148.8125 C-40.8125 148.1525 -40.8125 147.4925 -40.8125 146.8125 C-40.214375 146.52375 -39.61625 146.235 -39 145.9375 C-36.61922208 144.76507974 -36.61922208 144.76507974 -33.8125 142.8125 C-32.966875 143.121875 -32.12125 143.43125 -31.25 143.75 C-26.04735566 145.35809007 -20.50752884 145.03668259 -15.5078125 142.765625 C-14.94835937 142.45109375 -14.38890625 142.1365625 -13.8125 141.8125 C-13.8125 141.1525 -13.8125 140.4925 -13.8125 139.8125 C-13.19890625 139.5546875 -12.5853125 139.296875 -11.953125 139.03125 C-8.28526531 136.94297952 -7.0952811 133.71944752 -5.8125 129.8125 C-4.88700941 124.44635273 -5.21864392 120.17284675 -8 115.4375 C-11.34668383 110.76156992 -15.1911279 107.34560148 -20.8125 105.8125 C-27.62533266 104.94945402 -31.92772024 106.38862814 -37.8125 109.8125 Z M13.1875 205.8125 C13.1875 206.4725 13.1875 207.1325 13.1875 207.8125 C12.5275 207.8125 11.8675 207.8125 11.1875 207.8125 C10.90777344 208.49957031 10.62804687 209.18664062 10.33984375 209.89453125 C6.65771303 218.17044564 6.65771303 218.17044564 2.375 219.9375 C0.7971875 220.370625 0.7971875 220.370625 -0.8125 220.8125 C-0.8125 221.4725 -0.8125 222.1325 -0.8125 222.8125 C-1.4725 222.8125 -2.1325 222.8125 -2.8125 222.8125 C-2.8125 223.4725 -2.8125 224.1325 -2.8125 224.8125 C-3.4725 224.8125 -4.1325 224.8125 -4.8125 224.8125 C-8.21245992 229.57244388 -8.93136877 233.97867998 -8.95776367 239.72290039 C-8.96414352 240.67060806 -8.97052338 241.61831573 -8.97709656 242.59474182 C-8.97820938 243.60632858 -8.9793222 244.61791534 -8.98046875 245.66015625 C-8.98379715 246.70900497 -8.98712555 247.7578537 -8.99055481 248.83848572 C-8.99560888 251.05158043 -8.99796361 253.26468273 -8.99780273 255.4777832 C-8.99999429 258.86617497 -9.01818013 262.25424371 -9.03710938 265.64257812 C-9.04004257 267.79426972 -9.04202786 269.94596286 -9.04296875 272.09765625 C-9.05015427 273.11126724 -9.05733978 274.12487823 -9.06474304 275.16920471 C-9.06166641 276.11376022 -9.05858978 277.05831573 -9.05541992 278.03149414 C-9.05684494 278.86024551 -9.05826996 279.68899689 -9.05973816 280.54286194 C-8.78892626 283.02890614 -8.05753435 284.66181076 -6.8125 286.8125 C-3.3475 286.3175 -3.3475 286.3175 0.1875 285.8125 C0.19336624 285.19719925 0.19923248 284.5818985 0.20527649 283.94795227 C0.2692438 277.53995056 0.35367237 271.13244952 0.44995117 264.72485352 C0.48319167 262.33397017 0.51122629 259.94300852 0.53393555 257.55200195 C0.56749683 254.11375581 0.61981524 250.67622671 0.67578125 247.23828125 C0.68217117 246.17039871 0.6885611 245.10251617 0.69514465 244.00227356 C0.88014198 234.65004905 0.88014198 234.65004905 4.1875 230.8125 C4.8475 230.4825 5.5075 230.1525 6.1875 229.8125 C6.1875 229.1525 6.1875 228.4925 6.1875 227.8125 C6.8475 227.8125 7.5075 227.8125 8.1875 227.8125 C8.373125 228.51375 8.55875 229.215 8.75 229.9375 C11.1502604 234.73802081 14.5624156 237.79661368 19.58984375 239.7421875 C26.6564756 241.50612334 30.77756785 240.01746607 37.1875 236.8125 C37.1875 236.1525 37.1875 235.4925 37.1875 234.8125 C37.8475 234.8125 38.5075 234.8125 39.1875 234.8125 C39.1875 234.1525 39.1875 233.4925 39.1875 232.8125 C39.8475 232.8125 40.5075 232.8125 41.1875 232.8125 C43.92566458 227.42173848 46.086312 222.99183249 45.1875 216.8125 C42.9221318 210.18184364 39.33261636 206.24475836 33.296875 202.703125 C26.13136145 199.67768594 19.48787763 202.07894288 13.1875 205.8125 Z " fill="#E2C6CF" transform="translate(271.8125,89.1875)"/>
<path d="M0 0 C0.90105469 0.01804688 1.80210937 0.03609375 2.73046875 0.0546875 C3.41753906 0.07789063 4.10460937 0.10109375 4.8125 0.125 C4.8125 0.785 4.8125 1.445 4.8125 2.125 C5.4725 2.125 6.1325 2.125 6.8125 2.125 C9.48023607 6.1266041 9.52728813 9.41931148 8.8125 14.125 C6.93629387 16.62660818 5.57358697 17.74445652 2.8125 19.125 C-1.09843991 19.4939566 -3.52296589 19.45726705 -7.0625 17.6875 C-10.00515262 14.13900713 -10.50080527 10.68801006 -10.1875 6.125 C-8.24057106 0.9331895 -5.31307558 -0.13800196 0 0 Z " fill="#CABCD5" transform="translate(313.1875,230.875)"/>
<path d="M0 0 C0.99 0.66 1.98 1.32 3 2 C3 2.66 3 3.32 3 4 C3.66 4 4.32 4 5 4 C5.62805304 13.14166085 5.62805304 13.14166085 3.125 16.5625 C-0.47885539 19.00040217 -2.61714698 19.42142818 -7 19 C-10.3125 17.4375 -10.3125 17.4375 -13 15 C-14.06819336 11.32808532 -14.23867457 8.95469826 -13.3125 5.25 C-9.94168887 -0.52853337 -6.2247803 -0.49403018 0 0 Z " fill="#D6C1CC" transform="translate(251,205)"/>
<path d="M0 0 C2.5 1.3125 2.5 1.3125 4 4 C4.65721502 7.79916399 4.75217253 11.21042848 4 15 C1.4375 17.75 1.4375 17.75 -2 19 C-5.84635869 19 -8.13155734 18.51215849 -11.4375 16.5625 C-13.89929276 12.52515988 -13.86190469 8.59174001 -13 4 C-9.3808519 -0.75013189 -5.55255732 -0.70508664 0 0 Z " fill="#CBB6C2" transform="translate(302,301)"/>
<path d="M0 0 C1.17578125 1.51171875 1.17578125 1.51171875 2 4 C1.18542282 6.74368416 0.30523433 9.19801559 -0.8125 11.8125 C-2.9513179 16.93124397 -4.44236725 21.45988243 -5 27 C-5.268125 26.360625 -5.53625 25.72125 -5.8125 25.0625 C-6.88667752 22.66868314 -6.88667752 22.66868314 -10 22 C-10.66 21.01 -11.32 20.02 -12 19 C-12.66 19.33 -13.32 19.66 -14 20 C-16.125 19.0625 -16.125 19.0625 -18 18 C-17.34 17.34 -16.68 16.68 -16 16 C-16.33 15.34 -16.66 14.68 -17 14 C-14.69 13.34 -12.38 12.68 -10 12 C-10 11.34 -10 10.68 -10 10 C-9.34 10 -8.68 10 -8 10 C-8 9.34 -8 8.68 -8 8 C-7.34 8 -6.68 8 -6 8 C-5.34 5.69 -4.68 3.38 -4 1 C-3.01 1 -2.02 1 -1 1 C-0.67 0.67 -0.34 0.34 0 0 Z " fill="#DEC6D3" transform="translate(319,314)"/>
<path d="M0 0 C1.32 0.66 2.64 1.32 4 2 C3.54625 2.33 3.0925 2.66 2.625 3 C0.19642928 5.98901011 -0.24749279 9.28087781 -1 13 C-1.309375 14.485 -1.309375 14.485 -1.625 16 C-1.74875 16.66 -1.8725 17.32 -2 18 C-2.78375 18.103125 -3.5675 18.20625 -4.375 18.3125 C-7.33045181 18.77595022 -7.33045181 18.77595022 -9 22 C-9 22.66 -9 23.32 -9 24 C-12.32703078 27.91415386 -15.02639643 29.72768281 -20 31 C-17.95260548 27.5197805 -15.78814751 24.16358331 -13.49609375 20.83984375 C-12.50899414 19.4022168 -12.50899414 19.4022168 -11.50195312 17.93554688 C-10.12256982 15.93237434 -8.74235758 13.92977237 -7.36132812 11.92773438 C-6.70455078 10.97060547 -6.04777344 10.01347656 -5.37109375 9.02734375 C-4.77224365 8.15843506 -4.17339355 7.28952637 -3.55639648 6.39428711 C-2.20047549 4.30840205 -1.05351247 2.25007844 0 0 Z " fill="#F1C4B6" transform="translate(152,253)"/>
<path d="M0 0 C2.64 0.33 5.28 0.66 8 1 C7.49396008 3.16874252 7.00016187 4.99967627 6 7 C6.66 7 7.32 7 8 7 C9.125 12.625 9.125 12.625 8 16 C8.28875 16.680625 8.5775 17.36125 8.875 18.0625 C10.45877668 22.19791688 11.27837089 26.56111279 11 31 C9.51171875 32.8046875 9.51171875 32.8046875 8 34 C6.875 27.375 6.875 27.375 8 24 C7.34 23.67 6.68 23.34 6 23 C6 22.34 6 21.68 6 21 C5.34 21 4.68 21 4 21 C1.33050313 15.66100627 3.35428387 7.73073065 4 2 C2.68 1.34 1.36 0.68 0 0 Z " fill="#D6AE9C" transform="translate(143,299)"/>
<path d="M0 0 C6 0 6 0 7.796875 0.49609375 C10.65355453 1.14948322 13.32296733 1.09431557 16.25 1.0625 C17.86648438 1.04896484 17.86648438 1.04896484 19.515625 1.03515625 C20.74539063 1.01775391 20.74539063 1.01775391 22 1 C22 1.33 22 1.66 22 2 C20.70642578 2.31130859 20.70642578 2.31130859 19.38671875 2.62890625 C10.73900565 4.81138083 2.47650186 7.53702495 -5.82739258 10.80102539 C-6.60236084 11.10000732 -7.3773291 11.39898926 -8.17578125 11.70703125 C-8.86583252 11.9800708 -9.55588379 12.25311035 -10.2668457 12.53442383 C-12 13 -12 13 -14 12 C-13.34 10.68 -12.68 9.36 -12 8 C-9.36 8 -6.72 8 -4 8 C-3.67 7.01 -3.34 6.02 -3 5 C-2.34 4.67 -1.68 4.34 -1 4 C-1 3.01 -1 2.02 -1 1 C-0.67 0.67 -0.34 0.34 0 0 Z " fill="#CAA69A" transform="translate(250,400)"/>
<path d="M0 0 C0.66 0 1.32 0 2 0 C1.67 2.31 1.34 4.62 1 7 C1.99 7.33 2.98 7.66 4 8 C4.02691685 10.45840605 4.04679802 12.91651882 4.0625 15.375 C4.07087891 16.07367188 4.07925781 16.77234375 4.08789062 17.4921875 C4.11328125 22.7734375 4.11328125 22.7734375 3 25 C3.66 25 4.32 25 5 25 C5 26.98 5 28.96 5 31 C4.01 31.33 3.02 31.66 2 32 C-0.81143126 28.84083908 -1.36883274 26.88823727 -1.25 22.6875 C-1.21712891 21.23150391 -1.21712891 21.23150391 -1.18359375 19.74609375 C-1 17 -1 17 -0.3125 13.25 C0.10165183 8.94282101 -1.05318819 6.81575115 -3 3 C-2.34 3 -1.68 3 -1 3 C-0.67 2.01 -0.34 1.02 0 0 Z " fill="#B99685" transform="translate(155,330)"/>
<path d="M0 0 C1.65 0.33 3.3 0.66 5 1 C5 1.99 5 2.98 5 4 C5.70640625 3.98839844 6.4128125 3.97679687 7.140625 3.96484375 C17.4517812 3.87416775 27.70786223 4.42536419 38 5 C38 5.33 38 5.66 38 6 C6.71726895 9.69975277 6.71726895 9.69975277 -2 4 C-2.33 3.34 -2.66 2.68 -3 2 C-2.01 2 -1.02 2 0 2 C0 1.34 0 0.68 0 0 Z " fill="#BA9988" transform="translate(161,360)"/>
<path d="M0 0 C0.33 0 0.66 0 1 0 C1.01030746 0.58215775 1.02061493 1.16431549 1.03123474 1.76411438 C1.13928566 7.81478134 1.25388492 13.86529895 1.37231445 19.91577148 C1.4156678 22.17485433 1.45734258 24.43397003 1.49731445 26.69311523 C1.55500713 29.93743804 1.61870469 33.1815954 1.68359375 36.42578125 C1.70030624 37.43836502 1.71701874 38.45094879 1.73423767 39.49421692 C1.75418289 40.43496567 1.77412811 41.37571442 1.79467773 42.3449707 C1.81022202 43.17325882 1.8257663 44.00154694 1.84178162 44.85493469 C1.92540723 47.18553247 1.92540723 47.18553247 3 50 C1.6875 52.1875 1.6875 52.1875 0 54 C-0.66 54 -1.32 54 -2 54 C-2 54.66 -2 55.32 -2 56 C-4.475 56.495 -4.475 56.495 -7 57 C-7.33 55.35 -7.66 53.7 -8 52 C-2.25 50 -2.25 50 0 50 C0 33.5 0 17 0 0 Z " fill="#8E7772" transform="translate(272,325)"/>
<path d="M0 0 C1.18224668 3.54674003 0.89329634 5.97522995 0.5625 9.6875 C0.46066406 10.86699219 0.35882813 12.04648437 0.25390625 13.26171875 C0.17011719 14.16535156 0.08632812 15.06898438 0 16 C-3.85103301 15.46324097 -5.31797587 13.88399077 -7.75 10.9375 C-8.36359375 10.20402344 -8.9771875 9.47054688 -9.609375 8.71484375 C-10.06828125 8.14894531 -10.5271875 7.58304687 -11 7 C-10.05640625 6.56880859 -10.05640625 6.56880859 -9.09375 6.12890625 C-6.85905221 5.11890125 -6.85905221 5.11890125 -5.5 2.9375 C-3.75490519 0.6834192 -2.76576527 0.38148486 0 0 Z " fill="#D0B7B7" transform="translate(242,280)"/>
<path d="M0 0 C0 3.3 0 6.6 0 10 C-2.31 10.66 -4.62 11.32 -7 12 C-8.90530653 9.33257086 -10 7.69884404 -10 4.375 C-7.9221525 -0.55988782 -4.91876599 -1.2296915 0 0 Z " fill="#D4C0CD" transform="translate(256,209)"/>
<path d="M0 0 C0.33 0.66 0.66 1.32 1 2 C1.66 2.33 2.32 2.66 3 3 C2.01 3 1.02 3 0 3 C-0.00535739 7.43017577 0.02857283 11.85785904 0.09765625 16.28735352 C0.11573371 17.79149529 0.12339978 19.29580201 0.12011719 20.80004883 C-0.24378894 30.78394326 -0.24378894 30.78394326 4.1171875 39.33984375 C5.06851562 40.21769531 6.01984375 41.09554687 7 42 C6.67 42.99 6.34 43.98 6 45 C6 44.34 6 43.68 6 43 C4.02 43.66 2.04 44.32 0 45 C-1.125 41.25 -1.125 41.25 0 39 C-0.495 37.515 -0.495 37.515 -1 36 C-1.17690717 33.44040282 -1.30512136 30.90260947 -1.38671875 28.33984375 C-1.41224319 27.59416641 -1.43776764 26.84848907 -1.46406555 26.08021545 C-1.51600861 24.50594843 -1.56544326 22.93159693 -1.61254883 21.35717773 C-1.68733888 18.94270149 -1.77793392 16.52913912 -1.86914062 14.11523438 C-1.91763871 12.58596802 -1.96519688 11.0566715 -2.01171875 9.52734375 C-2.04077805 8.80336899 -2.06983734 8.07939423 -2.09977722 7.33348083 C-2.14467313 5.55590969 -2.08133112 3.77627702 -2 2 C-1.34 1.34 -0.68 0.68 0 0 Z " fill="#B0ACB8" transform="translate(370,147)"/>
<path d="M0 0 C1.41666667 0.70833333 2.83333333 1.41666667 4.25 2.125 C7.54507917 3.17343428 9.64331995 2.59674312 13 2 C13.66 2.66 14.32 3.32 15 4 C14.67 4.99 14.34 5.98 14 7 C11 8 11 8 8.83203125 7.1015625 C5.1042704 5.65159207 1.65353191 5.54512469 -2.3125 5.375 C-3.05306641 5.33632813 -3.79363281 5.29765625 -4.55664062 5.2578125 C-6.37071309 5.16418295 -8.18532116 5.08103149 -10 5 C-10 4.01 -10 3.02 -10 2 C-4.375 1.75 -4.375 1.75 -1 4 C-0.67 2.68 -0.34 1.36 0 0 Z " fill="#F2C3AD" transform="translate(193,360)"/>
<path d="M0 0 C1.1171875 1.671875 1.1171875 1.671875 2 4 C1.3203125 6.578125 1.3203125 6.578125 0.125 9.25 C-0.26429688 10.14203125 -0.65359375 11.0340625 -1.0546875 11.953125 C-1.36664063 12.62859375 -1.67859375 13.3040625 -2 14 C-2.66 13.34 -3.32 12.68 -4 12 C-5.34262065 12.29369827 -6.67696283 12.6278958 -8 13 C-8.66 12.67 -9.32 12.34 -10 12 C-10 11.34 -10 10.68 -10 10 C-9.34 10 -8.68 10 -8 10 C-8 9.34 -8 8.68 -8 8 C-7.34 8 -6.68 8 -6 8 C-5.34 5.69 -4.68 3.38 -4 1 C-3.01 1 -2.02 1 -1 1 C-0.67 0.67 -0.34 0.34 0 0 Z " fill="#C0AFBA" transform="translate(319,314)"/>
<path d="M0 0 C2.12999997 3.79039366 2.16702456 6.65736138 2 11 C4.64 11 7.28 11 10 11 C10 10.34 10 9.68 10 9 C11.98 9.66 13.96 10.32 16 11 C12.65210373 14.34789627 8.92137737 14.89068404 4.3125 15.4375 C1 15 1 15 -1.0625 13.125 C-2.45629244 8.4790252 -1.24140086 4.59943485 0 0 Z " fill="#B89585" transform="translate(216,403)"/>
<path d="M0 0 C0.66 0.33 1.32 0.66 2 1 C1.98839844 1.85722656 1.97679687 2.71445312 1.96484375 3.59765625 C1.82748095 10.89922275 1.82748095 10.89922275 2.6875 18.125 C3 21 3 21 2.0625 22.9375 C-1.25508697 24.64655995 -4.30441203 24.18175023 -8 24 C-8.33 23.01 -8.66 22.02 -9 21 C-6.03 20.67 -3.06 20.34 0 20 C0 13.4 0 6.8 0 0 Z " fill="#EDC5B9" transform="translate(252,368)"/>
<path d="M0 0 C0.433125 0.639375 0.86625 1.27875 1.3125 1.9375 C2.91239177 4.26746003 2.91239177 4.26746003 6 5 C4.875 6.5625 4.875 6.5625 3 8 C-0.1875 7.6875 -0.1875 7.6875 -3 7 C-3 8.98 -3 10.96 -3 13 C-5.875 13.125 -5.875 13.125 -9 13 C-9.66 12.34 -10.32 11.68 -11 11 C-6.25 8 -6.25 8 -4 8 C-4 7.34 -4 6.68 -4 6 C-3.34 6 -2.68 6 -2 6 C-1.34 4.02 -0.68 2.04 0 0 Z " fill="#AEA3BC" transform="translate(330,247)"/>
<path d="M0 0 C6 0 6 0 7.796875 0.49609375 C10.65355453 1.14948322 13.32296733 1.09431557 16.25 1.0625 C17.86648438 1.04896484 17.86648438 1.04896484 19.515625 1.03515625 C20.74539063 1.01775391 20.74539063 1.01775391 22 1 C22 1.33 22 1.66 22 2 C14.26134446 4.13480153 6.99976044 4.20483028 -1 4 C-1 1 -1 1 0 0 Z " fill="#F2BDAB" transform="translate(250,400)"/>
<path d="M0 0 C0.33 0 0.66 0 1 0 C1 2.97 1 5.94 1 9 C0.34 9 -0.32 9 -1 9 C-1.66 10.32 -2.32 11.64 -3 13 C-12.405 13.495 -12.405 13.495 -22 14 C-22 13.67 -22 13.34 -22 13 C-16.35600642 10.55935413 -11.02248522 10.80710901 -5 11 C-5 10.34 -5 9.68 -5 9 C-4.01 8.34 -3.02 7.68 -2 7 C-0.7811879 3.44327821 -0.7811879 3.44327821 0 0 Z " fill="#AC9495" transform="translate(317,383)"/>
<path d="M0 0 C1.32 0.33 2.64 0.66 4 1 C4.13277344 1.68707031 4.26554688 2.37414062 4.40234375 3.08203125 C4.57894531 3.98308594 4.75554687 4.88414062 4.9375 5.8125 C5.19853516 7.15248047 5.19853516 7.15248047 5.46484375 8.51953125 C5.97741153 11.11397171 5.97741153 11.11397171 7 14 C6.01 14 5.02 14 4 14 C4 17.63 4 21.26 4 25 C3.67 25 3.34 25 3 25 C2.92652344 23.42412109 2.92652344 23.42412109 2.8515625 21.81640625 C2.46623574 14.34124509 1.94572447 7.26403803 0 0 Z " fill="#BF998A" transform="translate(214,378)"/>
<path d="M0 0 C0.66 1.32 1.32 2.64 2 4 C1.01 4 0.02 4 -1 4 C-1 3.34 -1 2.68 -1 2 C-5.28324091 4.51407619 -7.64531705 6.12314139 -9 11 C-9.99 11 -10.98 11 -12 11 C-12 10.34 -12 9.68 -12 9 C-12.66 9 -13.32 9 -14 9 C-13.91015625 7.171875 -13.91015625 7.171875 -13 5 C-10.05859375 3.515625 -10.05859375 3.515625 -6.4375 2.25 C-5.23996094 1.82203125 -4.04242188 1.3940625 -2.80859375 0.953125 C-1.88175781 0.63859375 -0.95492187 0.3240625 0 0 Z " fill="#C5B7C5" transform="translate(207,99)"/>
<path d="M0 0 C0.33 0.66 0.66 1.32 1 2 C3.80980673 2.69227032 3.80980673 2.69227032 7.0625 3.125 C8.16722656 3.29257812 9.27195312 3.46015625 10.41015625 3.6328125 C11.26480469 3.75398438 12.11945313 3.87515625 13 4 C13 4.33 13 4.66 13 5 C5.34800303 6.23535374 -2.27577951 7.33742578 -10 8 C-10 7.01 -10 6.02 -10 5 C-4.125 4 -4.125 4 -3 4 C-2.67 3.01 -2.34 2.02 -2 1 C-1.34 0.67 -0.68 0.34 0 0 Z " fill="#C5A09D" transform="translate(282,393)"/>
<path d="M0 0 C0.33 0.66 0.66 1.32 1 2 C2.32 1.67 3.64 1.34 5 1 C4.125 7.75 4.125 7.75 3 10 C3.66 10.33 4.32 10.66 5 11 C4.01 11 3.02 11 2 11 C2 10.34 2 9.68 2 9 C1.01 9 0.02 9 -1 9 C-1.33 9.66 -1.66 10.32 -2 11 C-1.85892253 9.54119891 -1.71197585 8.08296449 -1.5625 6.625 C-1.48128906 5.81289062 -1.40007812 5.00078125 -1.31640625 4.1640625 C-1 2 -1 2 0 0 Z " fill="#CDACA7" transform="translate(155,215)"/>
<path d="M0 0 C0.66 0.66 1.32 1.32 2 2 C1.525625 2.350625 1.05125 2.70125 0.5625 3.0625 C-1.67873825 5.84163543 -1.67117658 8.5144717 -2 12 C-0.68 12.33 0.64 12.66 2 13 C2 14.32 2 15.64 2 17 C-0.36810318 16.05275873 -1.75207953 15.34708866 -3.25 13.25 C-4.48643539 9.54069384 -4.51105784 6.35065287 -3.125 2.6875 C-2 1 -2 1 0 0 Z M3 11 C3.33 11.66 3.66 12.32 4 13 C3.34 12.67 2.68 12.34 2 12 C2.33 11.67 2.66 11.34 3 11 Z " fill="#B5AABB" transform="translate(307,232)"/>
<path d="M0 0 C0.66 0 1.32 0 2 0 C1.67 2.31 1.34 4.62 1 7 C1.99 7.33 2.98 7.66 4 8 C4 11.3 4 14.6 4 18 C3.34 18.33 2.68 18.66 2 19 C1.70996094 17.89591797 1.70996094 17.89591797 1.4140625 16.76953125 C1.15367187 15.79371094 0.89328125 14.81789063 0.625 13.8125 C0.36976563 12.84957031 0.11453125 11.88664062 -0.1484375 10.89453125 C-0.94766296 8.17789793 -1.9031362 5.60862825 -3 3 C-2.34 3 -1.68 3 -1 3 C-0.67 2.01 -0.34 1.02 0 0 Z " fill="#CFA694" transform="translate(155,330)"/>
<path d="M0 0 C0.85722656 -0.02578125 1.71445312 -0.0515625 2.59765625 -0.078125 C5.37608273 0.31150409 6.21207227 1.10028677 7.9375 3.25 C4.47527385 4.31723961 1.29710734 4.35173486 -2.3125 4.3125 C-3.39015625 4.30347656 -4.4678125 4.29445312 -5.578125 4.28515625 C-6.39796875 4.27355469 -7.2178125 4.26195312 -8.0625 4.25 C-8.3925 3.26 -8.7225 2.27 -9.0625 1.25 C-6.00095379 0.36918392 -3.18339323 0.05761798 0 0 Z " fill="#DACEE5" transform="translate(314.0625,216.75)"/>
<path d="M0 0 C0.8971875 0.5259375 0.8971875 0.5259375 1.8125 1.0625 C4.10813214 2.33304698 4.10813214 2.33304698 7 1 C9.6875 1.4375 9.6875 1.4375 12 2 C11.67 3.65 11.34 5.3 11 7 C4.64285714 6.51098901 4.64285714 6.51098901 1.5625 4.0625 C0 2 0 2 0 0 Z " fill="#AD9DA5" transform="translate(289,313)"/>
<path d="M0 0 C0.66 0 1.32 0 2 0 C2.33 1.98 2.66 3.96 3 6 C0.02819057 7.89865603 -2.51460083 9.35455571 -6 10 C-6.33 9.34 -6.66 8.68 -7 8 C-6.67 7.34 -6.34 6.68 -6 6 C-5.34 6 -4.68 6 -4 6 C-4 5.34 -4 4.68 -4 4 C-3.34 4 -2.68 4 -2 4 C-2 3.34 -2 2.68 -2 2 C-1.34 2 -0.68 2 0 2 C0 1.34 0 0.68 0 0 Z " fill="#C3B1B3" transform="translate(229,238)"/>
<path d="M0 0 C2 1 2 1 3 3 C4.65 2.67 6.3 2.34 8 2 C7 5 7 5 5.3125 6.1875 C2.45030907 7.19313465 0.01172092 7.13689641 -3 7 C-3.33 5.68 -3.66 4.36 -4 3 C-3.01 2.67 -2.02 2.34 -1 2 C-0.67 1.34 -0.34 0.68 0 0 Z " fill="#BBABB4" transform="translate(247,217)"/>
<path d="M0 0 C1.32 0 2.64 0 4 0 C3.67 1.65 3.34 3.3 3 5 C3.66 5.33 4.32 5.66 5 6 C4.01 6.33 3.02 6.66 2 7 C1.34 6.67 0.68 6.34 0 6 C0.32742187 6.56203125 0.65484375 7.1240625 0.9921875 7.703125 C2.11785494 10.26859964 2.2068111 11.96842277 2.125 14.75 C2.10695312 15.54921875 2.08890625 16.3484375 2.0703125 17.171875 C2.04710937 17.77515625 2.02390625 18.3784375 2 19 C1.01 19.33 0.02 19.66 -1 20 C-1.02712351 17.60408962 -1.0468982 15.20849043 -1.0625 12.8125 C-1.07087891 12.13896484 -1.07925781 11.46542969 -1.08789062 10.77148438 C-1.10606538 7.04565869 -0.89299392 3.6211958 0 0 Z " fill="#BB9B94" transform="translate(154,231)"/>
<path d="M0 0 C0.33 1.32 0.66 2.64 1 4 C0.34 4 -0.32 4 -1 4 C-0.979375 5.093125 -0.95875 6.18625 -0.9375 7.3125 C-1 11 -1 11 -2 14 C-3.65 14.33 -5.3 14.66 -7 15 C-5.34292168 9.35086937 -3.52237988 4.73699363 0 0 Z " fill="#B09B9A" transform="translate(166,190)"/>
<path d="M0 0 C0.66 0 1.32 0 2 0 C2.66 1.32 3.32 2.64 4 4 C2.68 4 1.36 4 0 4 C0.33 4.99 0.66 5.98 1 7 C0.01 8.485 0.01 8.485 -1 10 C-2.32 9.34 -3.64 8.68 -5 8 C-4.1875 5.5625 -4.1875 5.5625 -3 3 C-2.01 2.67 -1.02 2.34 0 2 C0 1.34 0 0.68 0 0 Z " fill="#BDABAF" transform="translate(278,317)"/>
<path d="M0 0 C4.875 4.625 4.875 4.625 6 8 C5.67 8.66 5.34 9.32 5 10 C2.69 9.34 0.38 8.68 -2 8 C-2 7.01 -2 6.02 -2 5 C-1.34 5 -0.68 5 0 5 C0 3.35 0 1.7 0 0 Z " fill="#C1A5A1" transform="translate(212,279)"/>
<path d="M0 0 C1.28497537 3.85492611 0.4052209 5.40346836 -0.9375 9.1875 C-1.31777344 10.27417969 -1.69804687 11.36085938 -2.08984375 12.48046875 C-2.39019531 13.31191406 -2.69054687 14.14335937 -3 15 C-5.29633824 11.55549263 -5.54016485 9.06187717 -6 5 C-5.01 4.67 -4.02 4.34 -3 4 C-2.67 3.34 -2.34 2.68 -2 2 C-1.34 2 -0.68 2 0 2 C0 1.34 0 0.68 0 0 Z " fill="#A097A9" transform="translate(343,268)"/>
<path d="M0 0 C1.670625 0.495 1.670625 0.495 3.375 1 C6.69459717 2.088643 6.69459717 2.088643 9 2 C9 1.34 9 0.68 9 0 C9.99 0 10.98 0 12 0 C11.125 3.875 11.125 3.875 10 5 C7.99988837 4.77418095 5.99958525 4.54421999 4.0078125 4.25390625 C1.84125119 3.93727002 1.84125119 3.93727002 -1 4 C-0.67 2.68 -0.34 1.36 0 0 Z " fill="#E8B5A3" transform="translate(225,409)"/>
<path d="M0 0 C2.76262553 0.3810518 3.84143894 0.83597132 5.8125 2.875 C6.204375 3.57625 6.59625 4.2775 7 5 C6.67 5.99 6.34 6.98 6 8 C6 7.34 6 6.68 6 6 C4.02 6.66 2.04 7.32 0 8 C-0.98120464 4.94736336 -0.98120464 3.05263664 0 0 Z " fill="#B9B1CC" transform="translate(370,184)"/>
<path d="M0 0 C2.46800047 1.15173355 4.04783565 2.04783565 6 4 C6 5.32 6 6.64 6 8 C5.34 8 4.68 8 4 8 C4 8.66 4 9.32 4 10 C2.35 10.66 0.7 11.32 -1 12 C0.32 9.36 1.64 6.72 3 4 C2.34 4 1.68 4 1 4 C0.67 2.68 0.34 1.36 0 0 Z " fill="#938DA1" transform="translate(377,136)"/>
<path d="M0 0 C0.66 0.33 1.32 0.66 2 1 C2 4 2 4 0 6.1875 C-0.66 6.785625 -1.32 7.38375 -2 8 C-3.32 7.34 -4.64 6.68 -6 6 C-5.34 5.34 -4.68 4.68 -4 4 C-4.33 3.34 -4.66 2.68 -5 2 C-2.625 0.9375 -2.625 0.9375 0 0 Z " fill="#C2ADB7" transform="translate(307,326)"/>
<path d="M0 0 C2.31 0.33 4.62 0.66 7 1 C7 2.32 7 3.64 7 5 C6.01 5 5.02 5 4 5 C3.67 5.66 3.34 6.32 3 7 C1.66666667 7 0.33333333 7 -1 7 C-0.67 4.69 -0.34 2.38 0 0 Z " fill="#CDB0B0" transform="translate(257,319)"/>
<path d="M0 0 C3.1875 1.9375 3.1875 1.9375 6 4 C4.35 5.32 2.7 6.64 1 8 C-1 6.1875 -1 6.1875 -3 4 C-3 3.01 -3 2.02 -3 1 C-2.01 0.67 -1.02 0.34 0 0 Z " fill="#E2C9D4" transform="translate(292,309)"/>
<path d="M0 0 C1.18224668 3.54674003 0.89329634 5.97522995 0.5625 9.6875 C0.46066406 10.86699219 0.35882813 12.04648437 0.25390625 13.26171875 C0.17011719 14.16535156 0.08632812 15.06898438 0 16 C-1.9375 15.6875 -1.9375 15.6875 -4 15 C-4.33 14.01 -4.66 13.02 -5 12 C-3.68 11.67 -2.36 11.34 -1 11 C-1.33 8.03 -1.66 5.06 -2 2 C-1.34 2 -0.68 2 0 2 C0 1.34 0 0.68 0 0 Z " fill="#897B7B" transform="translate(242,280)"/>
<path d="M0 0 C0.94242239 2.54454045 1.01279315 3.94029864 0.4375 6.625 C-1 9 -1 9 -4.125 10.3125 C-5.07375 10.539375 -6.0225 10.76625 -7 11 C-4.79080336 7.24436571 -2.43615728 3.61223321 0 0 Z " fill="#BC9D90" transform="translate(139,273)"/>
<path d="M0 0 C2.97 0 5.94 0 9 0 C8.67 0.66 8.34 1.32 8 2 C7.34 2 6.68 2 6 2 C5.67 3.65 5.34 5.3 5 7 C4.01 6.67 3.02 6.34 2 6 C1.375 4.0625 1.375 4.0625 1 2 C0.67 1.34 0.34 0.68 0 0 Z " fill="#DBCBE7" transform="translate(308,232)"/>
<path d="M0 0 C1.258125 -0.04125 2.51625 -0.0825 3.8125 -0.125 C4.52019531 -0.14820313 5.22789062 -0.17140625 5.95703125 -0.1953125 C8 0 8 0 11 2 C10 4 10 4 8.1875 4.6875 C5.81180233 5.02688538 4.26664171 4.72856341 2 4 C3 2 3 2 4 1 C2.68 0.67 1.36 0.34 0 0 Z " fill="#AC9DA6" transform="translate(243,205)"/>
<path d="M0 0 C0.33 0.66 0.66 1.32 1 2 C4.3 1.67 7.6 1.34 11 1 C8.3104472 3.6895528 5.54672583 4.69331154 2 6 C1.01 5.67 0.02 5.34 -1 5 C-1 1 -1 1 0 0 Z " fill="#A19AAE" transform="translate(334,160)"/>
<path d="M0 0 C0.66 0.33 1.32 0.66 2 1 C1.67 1.33 1.34 1.66 1 2 C1.99 2.33 2.98 2.66 4 3 C2.75453595 6.73639216 1.36595047 7.18756513 -2 9 C-2.79953138 5.71303767 -3.09658936 4.28976808 -2 1 C-1.34 0.67 -0.68 0.34 0 0 Z " fill="#F3C0A9" transform="translate(155,320)"/>
<path d="M0 0 C0.33 0.66 0.66 1.32 1 2 C1.66 2 2.32 2 3 2 C4.625 3.5 4.625 3.5 6 5 C5.67 5.66 5.34 6.32 5 7 C4.01 7.33 3.02 7.66 2 8 C1.67 8.66 1.34 9.32 1 10 C-0.83691257 6.21812119 -1.15837626 4.05431692 0 0 Z " fill="#C7ADA9" transform="translate(233,302)"/>
<path d="M0 0 C-0.99 1.175625 -0.99 1.175625 -2 2.375 C-4.20201441 4.71512812 -4.20201441 4.71512812 -4 7 C-5.32 7.99 -6.64 8.98 -8 10 C-7.34 6.7 -6.68 3.4 -6 0 C-3 -1 -3 -1 0 0 Z " fill="#E4BCAD" transform="translate(147,270)"/>
<path d="M0 0 C0.99 0 1.98 0 3 0 C3 2.64 3 5.28 3 8 C2.01 7.67 1.02 7.34 0 7 C0 8.65 0 10.3 0 12 C-0.33 12 -0.66 12 -1 12 C-1.02698189 10.37509046 -1.04638757 8.75005367 -1.0625 7.125 C-1.07410156 6.22007812 -1.08570313 5.31515625 -1.09765625 4.3828125 C-1 2 -1 2 0 0 Z " fill="#EDCBC5" transform="translate(154,224)"/>
<path d="M0 0 C1.65 0 3.3 0 5 0 C5.33 1.32 5.66 2.64 6 4 C4.1875 5.0625 4.1875 5.0625 2 6 C1.01 5.67 0.02 5.34 -1 5 C-0.67 3.35 -0.34 1.7 0 0 Z " fill="#CFC5E2" transform="translate(345,154)"/>
<path d="M0 0 C1.48199902 0.44909061 2.96055236 0.90956564 4.4375 1.375 C5.26121094 1.63023438 6.08492188 1.88546875 6.93359375 2.1484375 C9 3 9 3 10 5 C6.37 5.33 2.74 5.66 -1 6 C-0.67 4.02 -0.34 2.04 0 0 Z " fill="#B9B0C8" transform="translate(306,105)"/>
<path d="M0 0 C0.33 0 0.66 0 1 0 C1 2.64 1 5.28 1 8 C1.66 8.33 2.32 8.66 3 9 C3 10.98 3 12.96 3 15 C2.01 15.33 1.02 15.66 0 16 C-0.9360342 12.20732808 -0.98276252 9.06325435 -0.5625 5.1875 C-0.40974609 3.72376953 -0.40974609 3.72376953 -0.25390625 2.23046875 C-0.12822266 1.12638672 -0.12822266 1.12638672 0 0 Z " fill="#F2BFAD" transform="translate(218,392)"/>
<path d="M0 0 C0.66 0.33 1.32 0.66 2 1 C0.61811547 4.21043882 -0.92421903 6.04936365 -3.625 8.25 C-4.25664062 8.77078125 -4.88828125 9.2915625 -5.5390625 9.828125 C-6.02117187 10.21484375 -6.50328125 10.6015625 -7 11 C-7 6.68381834 -4.86729652 5.07210341 -2 2 C-1.34 2 -0.68 2 0 2 C0 1.34 0 0.68 0 0 Z " fill="#B8A7AA" transform="translate(228,221)"/>
<path d="M0 0 C1.32 0 2.64 0 4 0 C4.24954005 1.43410368 4.47392642 2.87260072 4.6875 4.3125 C4.81511719 5.11300781 4.94273437 5.91351563 5.07421875 6.73828125 C5 9 5 9 3.51953125 10.79296875 C3.01808594 11.19128906 2.51664063 11.58960938 2 12 C0.875 5.375 0.875 5.375 2 2 C1.34 1.34 0.68 0.68 0 0 Z " fill="#BA998B" transform="translate(149,321)"/>
<path d="M0 0 C2.31 1.98 4.62 3.96 7 6 C3 8 3 8 1 8 C0.34 5.69 -0.32 3.38 -1 1 C-0.67 0.67 -0.34 0.34 0 0 Z " fill="#C2A8A5" transform="translate(226,295)"/>
<path d="M0 0 C0.33 0.66 0.66 1.32 1 2 C0.0625 4.625 0.0625 4.625 -1 7 C-1.66 6.34 -2.32 5.68 -3 5 C-4.34262065 5.29369827 -5.67696283 5.6278958 -7 6 C-7.66 5.67 -8.32 5.34 -9 5 C-9 4.34 -9 3.68 -9 3 C-8.34 3 -7.68 3 -7 3 C-7 2.34 -7 1.68 -7 1 C-5.824375 1.309375 -5.824375 1.309375 -4.625 1.625 C-3.75875 1.74875 -2.8925 1.8725 -2 2 C-1.34 1.34 -0.68 0.68 0 0 Z " fill="#92838C" transform="translate(318,321)"/>
<path d="M0 0 C0.99 0.33 1.98 0.66 3 1 C2.67 2.32 2.34 3.64 2 5 C1.34 5 0.68 5 0 5 C0 5.66 0 6.32 0 7 C-1.32 7 -2.64 7 -4 7 C-4.99 7.495 -4.99 7.495 -6 8 C-4.55746343 4.63408134 -2.66735273 2.48952921 0 0 Z " fill="#DCCDDE" transform="translate(299,256)"/>
<path d="M0 0 C1.875 0.1875 1.875 0.1875 4 1 C5.25 3.5625 5.25 3.5625 6 6 C3.36 6 0.72 6 -2 6 C-2 5.34 -2 4.68 -2 4 C-1.34 3.67 -0.68 3.34 0 3 C0 2.01 0 1.02 0 0 Z " fill="#D9CEEC" transform="translate(324,114)"/>
<path d="M0 0 C-0.33 0.99 -0.66 1.98 -1 3 C-1.99 3.33 -2.98 3.66 -4 4 C-4.99 3.34 -5.98 2.68 -7 2 C-6.67 1.67 -6.34 1.34 -6 1 C-6.66 0.34 -7.32 -0.32 -8 -1 C-4.59745511 -2.2151946 -3.06748874 -1.86240388 0 0 Z " fill="#D2A794" transform="translate(208,364)"/>
<path d="M0 0 C2.475 0.495 2.475 0.495 5 1 C5 1.99 5 2.98 5 4 C7.475 4.99 7.475 4.99 10 6 C9.34 7.32 8.68 8.64 8 10 C6.29115995 8.37660195 4.62553283 6.70680947 3 5 C3 4.34 3 3.68 3 3 C2.34 3 1.68 3 1 3 C0.67 2.01 0.34 1.02 0 0 Z " fill="#A59190" transform="translate(222,276)"/>
<path d="M0 0 C0.99 0.33 1.98 0.66 3 1 C3 1.66 3 2.32 3 3 C2.34 3 1.68 3 1 3 C0.855625 3.5775 0.71125 4.155 0.5625 4.75 C0.04166667 6.83333333 -0.47916667 8.91666667 -1 11 C-1.66 11 -2.32 11 -3 11 C-2.25 3.375 -2.25 3.375 0 0 Z " fill="#AE9E9D" transform="translate(212,238)"/>
<path d="M0 0 C0 0.66 0 1.32 0 2 C0.66 2.33 1.32 2.66 2 3 C-1.47325181 4.1577506 -4.36067448 4.06866652 -8 4 C-8.33 3.01 -8.66 2.02 -9 1 C-2.25 0 -2.25 0 0 0 Z " fill="#B9988D" transform="translate(252,388)"/>
<path d="M0 0 C1.32 0 2.64 0 4 0 C4 1.32 4 2.64 4 4 C2 5.75 2 5.75 0 7 C-0.33 6.01 -0.66 5.02 -1 4 C-1.66 3.67 -2.32 3.34 -3 3 C-2.01 2.67 -1.02 2.34 0 2 C0 1.34 0 0.68 0 0 Z " fill="#DACAE0" transform="translate(293,224)"/>
<path d="M0 0 C0.66 0.33 1.32 0.66 2 1 C2 2.65 2 4.3 2 6 C0.824375 5.525625 -0.35125 5.05125 -1.5625 4.5625 C-5.40103259 3.11193153 -8.92740191 2.42422897 -13 2 C-13 1.67 -13 1.34 -13 1 C-11.71802734 1.01740234 -11.71802734 1.01740234 -10.41015625 1.03515625 C-8.75306641 1.04869141 -8.75306641 1.04869141 -7.0625 1.0625 C-5.40927734 1.07990234 -5.40927734 1.07990234 -3.72265625 1.09765625 C-1.08552366 1.31262571 -1.08552366 1.31262571 0 0 Z " fill="#7F7587" transform="translate(323,219)"/>
<path d="M0 0 C2.5132982 2.5132982 2 3.62447307 2 7 C0.35 7.66 -1.3 8.32 -3 9 C-2.25 2.25 -2.25 2.25 0 0 Z " fill="#A3939A" transform="translate(240,207)"/>
<path d="M0 0 C1.98 0 3.96 0 6 0 C6 0.66 6 1.32 6 2 C6.66 2.33 7.32 2.66 8 3 C8 3.66 8 4.32 8 5 C7.236875 4.835 6.47375 4.67 5.6875 4.5 C2.96403764 3.90854604 2.96403764 3.90854604 0 4 C0 2.68 0 1.36 0 0 Z " fill="#D6CBE8" transform="translate(329,203)"/>
<path d="M0 0 C0 1.32 0 2.64 0 4 C-3.62528568 4.20140476 -5.86501708 3.85776765 -9 2 C-5.62902617 0.50178941 -3.79557881 0 0 0 Z M-3 4 C-2.34 4.66 -1.68 5.32 -1 6 C-1.99 5.67 -2.98 5.34 -4 5 C-3.67 4.67 -3.34 4.34 -3 4 Z " fill="#B2A8BA" transform="translate(240,86)"/>
<path d="M0 0 C2.64 0.33 5.28 0.66 8 1 C4.71536341 3.18975773 1.79303725 3.99806563 -2 5 C-1.34 3.35 -0.68 1.7 0 0 Z " fill="#B49281" transform="translate(238,408)"/>
<path d="M0 0 C0 0.66 0 1.32 0 2 C-1.62626404 3.38232443 -3.2925002 4.71937515 -5 6 C-5.66 5.67 -6.32 5.34 -7 5 C-6.625 2.5625 -6.625 2.5625 -6 0 C-3.50907189 -1.24546405 -2.58919267 -0.7767578 0 0 Z " fill="#CABACD" transform="translate(306,258)"/>
<path d="M0 0 C1.91831011 3.53855609 2.43246256 5.93485192 2 10 C0.5 11.875 0.5 11.875 -1 13 C-2.07310858 9.72814447 -1.89263102 7.57052408 -1.0625 4.25 C-0.86785156 3.45078125 -0.67320312 2.6515625 -0.47265625 1.828125 C-0.31667969 1.22484375 -0.16070312 0.6215625 0 0 Z " fill="#AF8C7F" transform="translate(216,403)"/>
<path d="M0 0 C0.125 3.375 0.125 3.375 0 7 C-0.66 7.66 -1.32 8.32 -2 9 C-2 8.01 -2 7.02 -2 6 C-2.99 5.67 -3.98 5.34 -5 5 C-2.74193548 0 -2.74193548 0 0 0 Z " fill="#DECEE0" transform="translate(293,234)"/>
<path d="M0 0 C3.3 0 6.6 0 10 0 C10 0.66 10 1.32 10 2 C10.66 2 11.32 2 12 2 C12.33 2.99 12.66 3.98 13 5 C11.35 4.67 9.7 4.34 8 4 C8 3.34 8 2.68 8 2 C5.36 1.67 2.72 1.34 0 1 C0 0.67 0 0.34 0 0 Z " fill="#A69CAD" transform="translate(308,231)"/>
<path d="M0 0 C3.19902639 -0.08886184 5.92677456 0.08941469 9 1 C9 1.66 9 2.32 9 3 C7.02 3.66 5.04 4.32 3 5 C2.01 3.35 1.02 1.7 0 0 Z " fill="#A9A0B6" transform="translate(325,225)"/>
<path d="M0 0 C-4.29 0.66 -8.58 1.32 -13 2 C-13 1.01 -13 0.02 -13 -1 C-8.3996257 -2.5334581 -4.62700393 -1.15675098 0 0 Z " fill="#9B807A" transform="translate(285,399)"/>
<path d="M0 0 C1.4606285 2.64738916 2 3.89448334 2 7 C0.02 7.33 -1.96 7.66 -4 8 C-4 6.68 -4 5.36 -4 4 C-3.01 3.67 -2.02 3.34 -1 3 C-0.67 2.01 -0.34 1.02 0 0 Z " fill="#EDC2B9" transform="translate(260,368)"/>
<path d="M0 0 C0.33 0 0.66 0 1 0 C1 2.31 1 4.62 1 7 C1.99 7.33 2.98 7.66 4 8 C4.33 9.65 4.66 11.3 5 13 C2.5 11.5625 2.5 11.5625 0 9 C-0.4451258 5.95743422 -0.29359745 3.0534135 0 0 Z " fill="#937A70" transform="translate(131,284)"/>
<path d="M0 0 C0 1.65 0 3.3 0 5 C-2.875 5.125 -2.875 5.125 -6 5 C-6.66 4.34 -7.32 3.68 -8 3 C-3.375 0 -3.375 0 0 0 Z " fill="#A49BAB" transform="translate(327,255)"/>
<path d="M0 0 C0.33 0.66 0.66 1.32 1 2 C1.66 2 2.32 2 3 2 C3.33 2.99 3.66 3.98 4 5 C2.02 6.32 0.04 7.64 -2 9 C-1.34 6.03 -0.68 3.06 0 0 Z " fill="#C3B4C0" transform="translate(265,219)"/>
<path d="M0 0 C4.38889325 0.66498383 7.9811485 2.18757677 12 4 C12 4.33 12 4.66 12 5 C9.69 5 7.38 5 5 5 C4.67 4.01 4.34 3.02 4 2 C1.98491642 1.26676204 1.98491642 1.26676204 0 1 C0 0.67 0 0.34 0 0 Z " fill="#938FA1" transform="translate(365,131)"/>
<path d="M0 0 C0 0.99 0 1.98 0 3 C-0.5775 2.814375 -1.155 2.62875 -1.75 2.4375 C-4.20692525 1.95976454 -5.64397534 2.24270636 -8 3 C-8 2.01 -8 1.02 -8 0 C-4.71023192 -1.09658936 -3.28696233 -0.79953138 0 0 Z " fill="#DDD1E9" transform="translate(251,84)"/>
<path d="M0 0 C3.96 0 7.92 0 12 0 C12 0.33 12 0.66 12 1 C8.04 1.66 4.08 2.32 0 3 C0 2.01 0 1.02 0 0 Z " fill="#BB9C92" transform="translate(260,401)"/>
<path d="M0 0 C0.66 0.66 1.32 1.32 2 2 C-1.2102122 5.2102122 -4.37460314 4.98974759 -8.8125 5.0625 C-9.864375 5.041875 -10.91625 5.02125 -12 5 C-12 4.67 -12 4.34 -12 4 C-11.38511719 3.87882812 -10.77023437 3.75765625 -10.13671875 3.6328125 C-9.32847656 3.46523438 -8.52023437 3.29765625 -7.6875 3.125 C-6.88699219 2.96257812 -6.08648437 2.80015625 -5.26171875 2.6328125 C-2.74698882 2.05521001 -2.74698882 2.05521001 0 0 Z " fill="#ECCBCA" transform="translate(300,392)"/>
<path d="M0 0 C1.31625194 2.63250388 0.74813658 3.80179056 0.0625 6.625 C-0.13214844 7.44226563 -0.32679688 8.25953125 -0.52734375 9.1015625 C-0.76130859 10.04128906 -0.76130859 10.04128906 -1 11 C-1.268125 10.360625 -1.53625 9.72125 -1.8125 9.0625 C-2.88667752 6.66868314 -2.88667752 6.66868314 -6 6 C-4.625 4.5 -4.625 4.5 -3 3 C-2.34 3 -1.68 3 -1 3 C-0.67 2.01 -0.34 1.02 0 0 Z " fill="#9B8893" transform="translate(315,330)"/>
<path d="M0 0 C2.33944736 0.28730055 4.6739143 0.61936779 7 1 C6.34 2.65 5.68 4.3 5 6 C3.68 5.67 2.36 5.34 1 5 C1 4.01 1 3.02 1 2 C0.34 1.67 -0.32 1.34 -1 1 C-0.67 0.67 -0.34 0.34 0 0 Z " fill="#C0AFBE" transform="translate(304,288)"/>
<path d="M0 0 C4.62 0 9.24 0 14 0 C14.33 0.66 14.66 1.32 15 2 C13.02 2.33 11.04 2.66 9 3 C9 2.67 9 2.34 9 2 C6.03 1.67 3.06 1.34 0 1 C0 0.67 0 0.34 0 0 Z " fill="#9E9198" transform="translate(261,274)"/>
<path d="M0 0 C2 2 2 2 2 5 C0.35 5.66 -1.3 6.32 -3 7 C-3 7.66 -3 8.32 -3 9 C-3.66 8.67 -4.32 8.34 -5 8 C-3.35 5.36 -1.7 2.72 0 0 Z " fill="#A58780" transform="translate(147,261)"/>
<path d="M0 0 C0.33 0.99 0.66 1.98 1 3 C-1 5 -1 5 -3.625 5.125 C-4.40875 5.08375 -5.1925 5.0425 -6 5 C-5.67 4.01 -5.34 3.02 -5 2 C-2.4375 0.8125 -2.4375 0.8125 0 0 Z " fill="#C1B3BC" transform="translate(279,257)"/>
<path d="M0 0 C1.32 0.66 2.64 1.32 4 2 C2.71034824 3.37562854 1.37310707 4.70766393 0 6 C-0.66 6 -1.32 6 -2 6 C-2 6.66 -2 7.32 -2 8 C-2.66 7.67 -3.32 7.34 -4 7 C-2.68 4.69 -1.36 2.38 0 0 Z " fill="#C5A69F" transform="translate(152,253)"/>
<path d="M0 0 C-1.8988764 6.57303371 -1.8988764 6.57303371 -5 9 C-5.33 9 -5.66 9 -6 9 C-6.25 6.75 -6.25 6.75 -6 4 C-2.75675676 0 -2.75675676 0 0 0 Z " fill="#AFA4B1" transform="translate(297,228)"/>
<path d="M0 0 C0.66 0.33 1.32 0.66 2 1 C2 1.99 2 2.98 2 4 C-1.22791555 6.1519437 -2.28400809 6.20086443 -6 6 C-4 4 -2 2 0 0 Z " fill="#BBAEB1" transform="translate(237,231)"/>
<path d="M0 0 C0.33 0.66 0.66 1.32 1 2 C1.99 1.67 2.98 1.34 4 1 C5.31625194 3.63250388 4.74813658 4.80179056 4.0625 7.625 C3.86785156 8.44226563 3.67320312 9.25953125 3.47265625 10.1015625 C3.31667969 10.72804687 3.16070312 11.35453125 3 12 C2.67 12 2.34 12 2 12 C1.855625 10.7625 1.71125 9.525 1.5625 8.25 C1.21311498 5.43495501 0.79620634 2.7298503 0 0 Z " fill="#948A9F" transform="translate(330,231)"/>
<path d="M0 0 C-2.96687001 1.64826111 -5.65626525 2.44271087 -9 3 C-9.33 2.01 -9.66 1.02 -10 0 C-6.42355152 -1.2380014 -3.66305234 -0.74926071 0 0 Z " fill="#D2C4DA" transform="translate(315,218)"/>
<path d="M0 0 C2.31 0.66 4.62 1.32 7 2 C6.34 3.65 5.68 5.3 5 7 C2.5 5.1875 2.5 5.1875 0 3 C0 2.01 0 1.02 0 0 Z " fill="#AFA9BE" transform="translate(352,125)"/>
<path d="M0 0 C2.64 0 5.28 0 8 0 C8 0.66 8 1.32 8 2 C7.34 2 6.68 2 6 2 C5.67 3.32 5.34 4.64 5 6 C4.731875 5.360625 4.46375 4.72125 4.1875 4.0625 C3.11332248 1.66868314 3.11332248 1.66868314 0 1 C0 0.67 0 0.34 0 0 Z " fill="#AD8D80" transform="translate(206,368)"/>
<path d="M0 0 C2.64 0.33 5.28 0.66 8 1 C7.42655063 3.86724686 7.1385485 4.8614515 5 7 C4.9175 6.21625 4.835 5.4325 4.75 4.625 C4.27193661 1.85250896 4.27193661 1.85250896 1.9375 0.6875 C1.298125 0.460625 0.65875 0.23375 0 0 Z " fill="#B58E80" transform="translate(143,299)"/>
<path d="M0 0 C0.6875 1.625 0.6875 1.625 1 4 C-0.4375 7.25 -0.4375 7.25 -2 10 C-3.125 8.25 -3.125 8.25 -4 6 C-3.05773345 3.33024478 -2.01384202 2.01384202 0 0 Z " fill="#AC9EA3" transform="translate(281,297)"/>
<path d="M0 0 C-2.36292656 2.52588702 -3.66462511 3.88820837 -7 5 C-7.33 3.68 -7.66 2.36 -8 1 C-5.29120665 -0.35439668 -2.99066732 -0.06501451 0 0 Z " fill="#D8CAE0" transform="translate(324,259)"/>
<path d="M0 0 C0.433125 0.9590625 0.433125 0.9590625 0.875 1.9375 C1.82823451 4.15206079 1.82823451 4.15206079 4 5 C3.67 5.66 3.34 6.32 3 7 C-1.875 5.25 -1.875 5.25 -3 3 C-2.34 3 -1.68 3 -1 3 C-0.67 2.01 -0.34 1.02 0 0 Z " fill="#E0D0DF" transform="translate(260,193)"/>
<path d="M0 0 C1.32 0.33 2.64 0.66 4 1 C3.67 3.64 3.34 6.28 3 9 C1.35173889 6.03312999 0.55728913 3.34373475 0 0 Z " fill="#AA877B" transform="translate(214,378)"/>
<path d="M0 0 C2.475 0.495 2.475 0.495 5 1 C4.34 2.65 3.68 4.3 3 6 C2.34 6 1.68 6 1 6 C0.67 4.02 0.34 2.04 0 0 Z " fill="#DCC0C7" transform="translate(278,321)"/>
<path d="M0 0 C2 1 2 1 3.1875 3.375 C4 6 4 6 3 9 C3 8.34 3 7.68 3 7 C1.35 6.67 -0.3 6.34 -2 6 C-1.67 5.38125 -1.34 4.7625 -1 4.125 C0.14193235 2.08981656 0.14193235 2.08981656 0 0 Z " fill="#938CA0" transform="translate(338,208)"/>
<path d="M0 0 C0.66 0.33 1.32 0.66 2 1 C0.35 2.65 -1.3 4.3 -3 6 C-3.33 5.67 -3.66 5.34 -4 5 C-4.99 4.34 -5.98 3.68 -7 3 C-4.69631264 1.93347808 -2.35981813 0.93578995 0 0 Z " fill="#A59297" transform="translate(135,130)"/>
<path d="M0 0 C0.66 0.33 1.32 0.66 2 1 C1.649375 1.5775 1.29875 2.155 0.9375 2.75 C-0.14917407 5.35801776 0.06934867 6.39417629 1 9 C0.01 8.67 -0.98 8.34 -2 8 C-2 5.69 -2 3.38 -2 1 C-1.34 0.67 -0.68 0.34 0 0 Z " fill="#EEC1B1" transform="translate(134,283)"/>
<path d="M0 0 C0.556875 0.474375 1.11375 0.94875 1.6875 1.4375 C4.18346074 3.12395996 6.0446237 3.58953107 9 4 C9 4.33 9 4.66 9 5 C2.84765625 5.87890625 2.84765625 5.87890625 1 6 C0 5 0 5 -0.0625 2.4375 C-0.041875 1.633125 -0.02125 0.82875 0 0 Z " fill="#CFC6E2" transform="translate(353,211)"/>
<path d="M0 0 C1.98 0 3.96 0 6 0 C5.67 0.99 5.34 1.98 5 3 C4.34 3 3.68 3 3 3 C3 3.66 3 4.32 3 5 C2.34 5 1.68 5 1 5 C0.67 3.35 0.34 1.7 0 0 Z " fill="#D8CEED" transform="translate(341,123)"/>
<path d="M0 0 C0.99 0 1.98 0 3 0 C3.33 0.99 3.66 1.98 4 3 C2.625 4.5 2.625 4.5 1 6 C0.34 6 -0.32 6 -1 6 C-0.67 4.02 -0.34 2.04 0 0 Z " fill="#D7CBEC" transform="translate(337,120)"/>
<path d="M0 0 C2.97 0.99 5.94 1.98 9 3 C5 5 5 5 2.8125 4.3125 C1 3 1 3 0 0 Z " fill="#A098A8" transform="translate(269,89)"/>
<path d="M0 0 C0.66 0 1.32 0 2 0 C2 0.66 2 1.32 2 2 C2.66 2.33 3.32 2.66 4 3 C3.01 3.33 2.02 3.66 1 4 C1 4.66 1 5.32 1 6 C-1 5 -1 5 -2 2 C-1.34 1.34 -0.68 0.68 0 0 Z " fill="#B5A3AF" transform="translate(284,291)"/>
<path d="M0 0 C0.66 0 1.32 0 2 0 C2 2.97 2 5.94 2 9 C0 8 0 8 -0.6875 6.1875 C-1.02688538 3.81180233 -0.72856341 2.26664171 0 0 Z " fill="#948A9E" transform="translate(344,254)"/>
<path d="M0 0 C1.0625 1.875 1.0625 1.875 2 4 C1.67 4.66 1.34 5.32 1 6 C-2 5 -2 5 -4 4 C-3.67 3.01 -3.34 2.02 -3 1 C-2.01 0.67 -1.02 0.34 0 0 Z " fill="#D7CAE9" transform="translate(326,216)"/>
<path d="M0 0 C0.66 1.32 1.32 2.64 2 4 C1.01 4 0.02 4 -1 4 C-1 3.34 -1 2.68 -1 2 C-1.99 2.66 -2.98 3.32 -4 4 C-5.32 3.67 -6.64 3.34 -8 3 C-5.36 2.01 -2.72 1.02 0 0 Z " fill="#A59BA6" transform="translate(207,99)"/>
<path d="M0 0 C2.31 0 4.62 0 7 0 C7 0.66 7 1.32 7 2 C4.29120665 3.35439668 1.99066732 3.06501451 -1 3 C-0.67 2.01 -0.34 1.02 0 0 Z " fill="#E7BFBC" transform="translate(289,393)"/>
<path d="M0 0 C1.32 0.66 2.64 1.32 4 2 C2 4 2 4 -1 5 C-1 1 -1 1 0 0 Z " fill="#DCC7DA" transform="translate(289,267)"/>
<path d="M0 0 C0.99 0 1.98 0 3 0 C3 0.99 3 1.98 3 3 C0.5 4.6875 0.5 4.6875 -2 6 C-2 4.68 -2 3.36 -2 2 C-1.34 2 -0.68 2 0 2 C0 1.34 0 0.68 0 0 Z " fill="#AF9DA3" transform="translate(249,266)"/>
<path d="M0 0 C0.99 0 1.98 0 3 0 C2.67 1.65 2.34 3.3 2 5 C1.34 5 0.68 5 0 5 C-0.5625 3.0625 -0.5625 3.0625 -1 1 C-0.67 0.67 -0.34 0.34 0 0 Z " fill="#D7CBE7" transform="translate(331,228)"/>
<path d="M0 0 C0.66 0.33 1.32 0.66 2 1 C0.70700306 3.88437779 -0.65941363 5.87219421 -3 8 C-3.36923077 3.44615385 -3.36923077 3.44615385 -1.5 1.1875 C-1.005 0.795625 -0.51 0.40375 0 0 Z " fill="#94868A" transform="translate(121,136)"/>
<path d="M0 0 C4.75 0.75 4.75 0.75 7 3 C5.35 3.33 3.7 3.66 2 4 C1.34 2.68 0.68 1.36 0 0 Z " fill="#DDD2E7" transform="translate(254,84)"/>
</svg>
